<svg id="visual" viewBox="0 0 960 540" width="960" height="540" xmlns="http://www.w3.org/2000/svg" xmlns:xlink="http://www.w3.org/1999/xlink" version="1.1"><path d="M0 405L20 401C40 397 80 389 120 392.3C160 395.7 200 410.3 240 411.8C280 413.3 320 401.7 360 403.5C400 405.3 440 420.7 480 422.8C520 425 560 414 600 409.5C640 405 680 407 720 403.2C760 399.3 800 389.7 840 389.5C880 389.3 920 398.7 940 403.3L960 408L960 541L940 541C920 541 880 541 840 541C800 541 760 541 720 541C680 541 640 541 600 541C560 541 520 541 480 541C440 541 400 541 360 541C320 541 280 541 240 541C200 541 160 541 120 541C80 541 40 541 20 541L0 541Z" fill="#0066ff"></path><path d="M0 439L20 443.7C40 448.3 80 457.7 120 461.7C160 465.7 200 464.3 240 462.8C280 461.3 320 459.7 360 456.7C400 453.7 440 449.3 480 449.3C520 449.3 560 453.7 600 452.2C640 450.7 680 443.3 720 444.5C760 445.7 800 455.3 840 455.5C880 455.7 920 446.3 940 441.7L960 437L960 541L940 541C920 541 880 541 840 541C800 541 760 541 720 541C680 541 640 541 600 541C560 541 520 541 480 541C440 541 400 541 360 541C320 541 280 541 240 541C200 541 160 541 120 541C80 541 40 541 20 541L0 541Z" fill="#00408e"></path><path d="M0 486L20 488.2C40 490.3 80 494.7 120 495C160 495.3 200 491.7 240 489.7C280 487.7 320 487.3 360 484.3C400 481.3 440 475.7 480 473C520 470.3 560 470.7 600 471.8C640 473 680 475 720 477.7C760 480.3 800 483.7 840 483.5C880 483.3 920 479.7 940 477.8L960 476L960 541L940 541C920 541 880 541 840 541C800 541 760 541 720 541C680 541 640 541 600 541C560 541 520 541 480 541C440 541 400 541 360 541C320 541 280 541 240 541C200 541 160 541 120 541C80 541 40 541 20 541L0 541Z" fill="#111827"></path></svg>